<svg width="48" height="48" viewBox="0 0 48 48" fill="none" xmlns="http://www.w3.org/2000/svg">
<rect width="48" height="48" fill="#F3F3F3"/>
<path d="M24.2594 36C21.5869 36 19.2457 35.4981 17.2357 34.4944C15.2485 33.4907 13.7067 32.0551 12.6103 30.1877C11.5368 28.3203 11 26.1494 11 23.6751C11 21.1774 11.5482 18.9715 12.6446 17.0574C13.7638 15.12 15.2827 13.6261 17.2014 12.5756C19.1429 11.5252 21.3128 11 23.7112 11C26.0867 11 28.2337 11.5252 30.1524 12.5756C32.0939 13.6261 33.6129 15.12 34.7092 17.0574C35.8285 18.9715 36.3881 21.1774 36.3881 23.6751C36.3881 25.3557 36.0226 26.9664 35.2917 28.507C34.5608 30.0243 33.6129 31.2264 32.4479 32.1134H36.8335V36H24.2594ZM23.7112 31.9734C26.2465 31.9734 28.2566 31.2498 29.7413 29.8025C31.2488 28.3553 32.0025 26.3128 32.0025 23.6751C32.0025 21.9477 31.6371 20.4304 30.9062 19.1232C30.1752 17.8161 29.1816 16.8123 27.9254 16.112C26.6691 15.4118 25.2644 15.0616 23.7112 15.0616C22.158 15.0616 20.7418 15.4118 19.4627 16.112C18.2064 16.8123 17.2128 17.8161 16.4819 19.1232C15.751 20.4304 15.3855 21.9477 15.3855 23.6751C15.3855 26.3361 16.1279 28.3903 17.6125 29.8375C19.1201 31.2614 21.1529 31.9734 23.7112 31.9734Z" fill="#101010"/>
</svg>
